<svg width="25" height="27" viewBox="0 0 25 27" fill="none" xmlns="http://www.w3.org/2000/svg">
<path d="M23.3009 6.95907C23.2726 6.51792 22.9077 6.17481 22.4655 6.17481H18.0377V4.86663C18.0377 2.247 15.5531 0.115356 12.5 0.115356C9.44684 0.115356 6.96228 2.247 6.96228 4.86663V6.17481H2.53451C2.09227 6.17481 1.72738 6.51792 1.69906 6.95907L0.510694 25.9958C0.496534 26.2267 0.578227 26.4522 0.736167 26.621C0.894108 26.7887 1.11522 26.8846 1.34614 26.8846H23.6538C23.8848 26.8846 24.1059 26.7887 24.2638 26.621C24.4218 26.4522 24.5034 26.2267 24.4893 25.9958L23.3009 6.95907ZM8.63536 4.86663C8.63536 3.16959 10.3694 1.78843 12.5 1.78843C14.6305 1.78843 16.3646 3.16959 16.3646 4.86663V6.17481H8.63536V4.86663ZM6.96228 7.84789V9.66475C6.96228 10.1266 7.33698 10.5013 7.79882 10.5013C8.26066 10.5013 8.63536 10.1266 8.63536 9.66475V7.84789H16.3646V9.66475C16.3646 10.1266 16.7393 10.5013 17.2012 10.5013C17.663 10.5013 18.0377 10.1266 18.0377 9.66475V7.84789H21.679L22.4039 19.4483H2.59612L3.32094 7.84789H6.96228ZM2.23605 25.2115L2.52647 20.5637H22.4735L22.7639 25.2115H2.23605Z" fill="#9C9C42"/>
</svg>
