<svg width="25" height="27" viewBox="0 0 25 27" fill="none" xmlns="http://www.w3.org/2000/svg">
<path d="M23.301 6.95909C23.2726 6.51795 22.9077 6.17484 22.4655 6.17484H18.0377V4.86666C18.0377 2.24703 15.5532 0.115383 12.5 0.115383C9.44688 0.115383 6.96232 2.24703 6.96232 4.86666V6.17484H2.53455C2.09231 6.17484 1.72742 6.51795 1.6991 6.95909L0.510732 25.9958C0.496572 26.2267 0.578265 26.4522 0.736205 26.621C0.894146 26.7888 1.11526 26.8846 1.34618 26.8846H23.6539C23.8848 26.8846 24.1059 26.7888 24.2639 26.621C24.4218 26.4522 24.5035 26.2267 24.4893 25.9958L23.301 6.95909ZM8.6354 4.86666C8.6354 3.16962 10.3695 1.78846 12.5 1.78846C14.6306 1.78846 16.3647 3.16962 16.3647 4.86666V6.17484H8.6354V4.86666ZM6.96232 7.84792V9.66477C6.96232 10.1266 7.33702 10.5013 7.79886 10.5013C8.2607 10.5013 8.6354 10.1266 8.6354 9.66477V7.84792H16.3647V9.66477C16.3647 10.1266 16.7394 10.5013 17.2012 10.5013C17.663 10.5013 18.0377 10.1266 18.0377 9.66477V7.84792H21.6791L22.4039 19.4484H2.59616L3.32098 7.84792H6.96232ZM2.23609 25.2115L2.52651 20.5637H22.4735L22.764 25.2115H2.23609Z" fill="#333333"/>
</svg>
