<svg width="9" height="10" viewBox="0 0 9 10" fill="none" xmlns="http://www.w3.org/2000/svg">
<path fill-rule="evenodd" clip-rule="evenodd" d="M2.1434 2.98509C2.1434 1.93197 2.99716 1.07821 4.05027 1.07821C5.10338 1.07821 5.95714 1.93197 5.95714 2.98509C5.95714 4.0382 5.10338 4.89196 4.05027 4.89196C2.99716 4.89196 2.1434 4.0382 2.1434 2.98509ZM7.40525 6.7462C6.83505 5.78224 6.06177 5.27829 5.68907 5.06779C5.68783 5.06717 5.6773 5.06531 5.67483 5.06407C6.29456 4.57931 6.70008 3.83327 6.70008 2.98509C6.70008 1.52212 5.51386 0.335278 4.05027 0.335278C2.58669 0.335278 1.40046 1.52212 1.40046 2.98509C1.40046 3.83327 1.80598 4.57931 2.42572 5.06407C2.42262 5.06531 2.41271 5.06717 2.41148 5.06779C2.03877 5.27829 1.2655 5.78224 0.695291 6.7462C0.21362 7.56034 0.0972269 8.32928 0.065033 8.74656C0.0699859 8.9453 0.223526 9.10565 0.408022 9.11927C0.611092 9.13475 0.80116 8.96697 0.80797 8.74656C0.875453 8.01848 1.11815 7.49843 1.28345 7.20806C1.7905 6.31964 2.55821 5.84911 2.89872 5.64109C3.00954 5.57298 3.1055 5.52036 3.17361 5.48383C3.17361 5.48135 3.17113 5.47578 3.17051 5.47393C3.44663 5.57175 3.74009 5.63489 4.05027 5.63489C4.36045 5.63489 4.65329 5.57175 4.93003 5.47393C4.92941 5.47578 4.92694 5.48135 4.92694 5.48383C4.99442 5.52036 5.09038 5.57298 5.20182 5.64109C5.54172 5.84911 6.30942 6.31964 6.81647 7.20806C6.98178 7.49843 7.22509 8.01848 7.29257 8.74656C7.29938 8.96697 7.48945 9.13475 7.69252 9.11927C7.8764 9.10565 8.03056 8.9453 8.03551 8.74656C8.0027 8.32928 7.8863 7.56034 7.40525 6.7462Z" fill="white"/>
</svg>
